<?xml version="1.0" encoding="UTF-8"?>
<svg id="uuid-1c9eac4a-3e36-491d-818d-e9e21687942a" xmlns="http://www.w3.org/2000/svg" viewBox="0 0 160.04 32"><defs><style>.uuid-0e9b15b0-7287-4d8f-8766-736277a274ec{fill:#eee;}</style></defs><g><path class="uuid-0e9b15b0-7287-4d8f-8766-736277a274ec" d="m49.92,28c-1.7,0-3.14-.34-4.32-1.03-1.17-.69-2.07-1.65-2.68-2.88-.61-1.24-.92-2.67-.92-4.29s.33-3.04,1-4.25c.66-1.22,1.59-2.16,2.79-2.82,1.19-.66,2.57-1,4.13-1,.89,0,1.78.12,2.66.37s1.7.67,2.46,1.26c.76.59,1.38,1.4,1.85,2.42l-3.96,1.43c-.25-.66-.62-1.13-1.11-1.4-.49-.27-1.03-.41-1.64-.41-.56,0-1.1.14-1.62.42-.52.28-.94.74-1.26,1.39-.32.64-.48,1.52-.48,2.62s.17,2.01.5,2.66c.33.65.75,1.12,1.26,1.4.51.28,1.04.42,1.61.42.66,0,1.23-.13,1.68-.39.46-.26.82-.62,1.09-1.08l3.86,1.4c-.52.94-1.16,1.68-1.93,2.23-.77.55-1.58.94-2.45,1.17-.86.23-1.71.34-2.54.34Z"/><path class="uuid-0e9b15b0-7287-4d8f-8766-736277a274ec" d="m63.54,28c-.98,0-1.87-.19-2.68-.56-.81-.37-1.45-.9-1.93-1.57-.48-.67-.72-1.48-.72-2.42,0-1.27.44-2.28,1.32-3.02s2.09-1.31,3.63-1.68c1.54-.37,3.3-.63,5.3-.78,0-1.1-.18-1.88-.53-2.34-.35-.46-1.04-.69-2.06-.69-.64,0-1.21.15-1.7.45-.49.3-.82.76-.98,1.39l-3.99-1.43c.52-1.04,1.39-1.9,2.6-2.59,1.22-.69,2.71-1.03,4.47-1.03,2.2,0,3.9.49,5.08,1.46,1.18.98,1.78,2.64,1.78,4.99v3.4c0,.67.02,1.38.06,2.15.04.77.1,1.5.19,2.18.08.69.18,1.26.28,1.71h-4.4l-.56-1.87c-.58.81-1.31,1.39-2.2,1.73s-1.88.51-2.98.51Zm1.75-3.24c.94,0,1.71-.25,2.34-.75.62-.5.94-1.45.94-2.87v-.37c-1.64.15-2.96.37-3.96.67-1,.3-1.5.86-1.5,1.67,0,.5.21.9.62,1.2.42.3.94.45,1.56.45Z"/><path class="uuid-0e9b15b0-7287-4d8f-8766-736277a274ec" d="m76.25,27.63v-15.46h3.74l.84,2.84c.48-1.25,1.13-2.12,1.96-2.62.83-.5,1.84-.72,3.02-.65v4.74c-.25-.04-.47-.07-.65-.08-.19,0-.39-.02-.62-.02-1.14,0-2.02.27-2.63.81-.61.54-.92,1.42-.92,2.65v7.79h-4.74Z"/><path class="uuid-0e9b15b0-7287-4d8f-8766-736277a274ec" d="m93.86,28c-1.33,0-2.51-.33-3.54-1-1.03-.66-1.83-1.62-2.42-2.85-.58-1.24-.87-2.7-.87-4.38s.29-3.12.87-4.32c.58-1.19,1.39-2.11,2.42-2.76,1.03-.64,2.21-.97,3.54-.97.85,0,1.72.21,2.62.64.89.43,1.59,1.07,2.09,1.92v-7.48h4.74v14.77c0,.77.04,1.68.11,2.74.07,1.06.21,2.16.42,3.3h-4.52l-.62-2.09c-.64.89-1.4,1.53-2.26,1.9-.86.37-1.72.56-2.57.56Zm1.53-3.68c.91,0,1.71-.34,2.38-1.03.67-.69,1.01-1.83,1.01-3.43s-.34-2.72-1.01-3.41c-.68-.7-1.47-1.04-2.38-1.04s-1.74.37-2.42,1.12-1.01,1.83-1.01,3.24.34,2.55,1.01,3.35c.68.8,1.48,1.2,2.42,1.2Z"/><path class="uuid-0e9b15b0-7287-4d8f-8766-736277a274ec" d="m106.43,27.63v-15.46h4.15l.59,2.06c.35-.58.94-1.14,1.76-1.68.82-.54,1.82-.81,3.01-.81,2,0,3.36.56,4.1,1.67.74,1.11,1.11,2.72,1.11,4.82v9.41h-4.74v-8.23c0-.73-.04-1.39-.12-1.99-.08-.6-.29-1.09-.61-1.45-.32-.36-.87-.55-1.64-.55-1,0-1.73.36-2.18,1.08s-.69,1.78-.69,3.19v7.95h-4.74Z"/><path class="uuid-0e9b15b0-7287-4d8f-8766-736277a274ec" d="m125.91,27.63v-11.84h-2.93v-3.62h7.7v15.46h-4.77Zm2.4-18.02c-.77,0-1.43-.27-1.98-.83-.55-.55-.83-1.21-.83-1.98s.28-1.45.83-1.99c.55-.54,1.21-.81,1.98-.81s1.45.27,1.99.81c.54.54.81,1.21.81,1.99s-.27,1.43-.81,1.98c-.54.55-1.21.83-1.99.83Z"/><path class="uuid-0e9b15b0-7287-4d8f-8766-736277a274ec" d="m138.12,28c-.98,0-1.87-.19-2.68-.56-.81-.37-1.45-.9-1.93-1.57-.48-.67-.72-1.48-.72-2.42,0-1.27.44-2.28,1.32-3.02s2.09-1.31,3.63-1.68c1.54-.37,3.3-.63,5.3-.78,0-1.1-.18-1.88-.53-2.34s-1.04-.69-2.06-.69c-.64,0-1.21.15-1.7.45-.49.3-.82.76-.98,1.39l-3.99-1.43c.52-1.04,1.39-1.9,2.6-2.59,1.22-.69,2.71-1.03,4.47-1.03,2.2,0,3.9.49,5.08,1.46,1.18.98,1.77,2.64,1.77,4.99v3.4c0,.67.02,1.38.06,2.15.04.77.1,1.5.19,2.18.08.69.18,1.26.28,1.71h-4.39l-.56-1.87c-.58.81-1.31,1.39-2.2,1.73-.88.34-1.88.51-2.98.51Zm1.75-3.24c.93,0,1.71-.25,2.34-.75.62-.5.94-1.45.94-2.87v-.37c-1.64.15-2.96.37-3.96.67-1,.3-1.5.86-1.5,1.67,0,.5.21.9.62,1.2.41.3.93.45,1.56.45Z"/><path class="uuid-0e9b15b0-7287-4d8f-8766-736277a274ec" d="m155.95,27.63c-1.27,0-2.28-.11-3.02-.33-.75-.22-1.28-.64-1.61-1.28-.32-.63-.48-1.55-.48-2.76V6.81h4.74v15.21c0,.73.15,1.2.44,1.42.29.22.83.33,1.62.33h1.34v3.86h-3.02Z"/></g><g><g><path class="uuid-0e9b15b0-7287-4d8f-8766-736277a274ec" d="m8,12L0,16l8,4s4-4,0-8Z"/><path class="uuid-0e9b15b0-7287-4d8f-8766-736277a274ec" d="m32,0l-16,8c8,8,0,16,0,16l-5-2.5-3,10.5h24l-2.54-10.18c-.96-3.82-.96-7.82,0-11.64C29.46,10.18,32,0,32,0Z"/></g><circle class="uuid-0e9b15b0-7287-4d8f-8766-736277a274ec" cx="14" cy="14" r="2"/></g></svg>